<?xml version="1.0" standalone="no"?>
<!DOCTYPE svg PUBLIC "-//W3C//DTD SVG 1.1//EN" "http://www.w3.org/Graphics/SVG/1.1/DTD/svg11.dtd" >
<svg xmlns="http://www.w3.org/2000/svg" xmlns:xlink="http://www.w3.org/1999/xlink" version="1.1">
<metadata>
Created by FontForge 20170731 at Tue May 24 23:35:22 2005
 By Aleksey,,,
Copyright (c) 1990, 1991 Adobe Systems Incorporated.  All Rights Reserved.Gill Sans is a registered trademark of The Monotype Corporation Plc.
</metadata>
<defs>
<font id="GillSansCondC-Bold" horiz-adv-x="521" >
  <font-face 
    font-family="GillSansCondC"
    font-weight="700"
    font-stretch="normal"
    units-per-em="1000"
    panose-1="0 0 8 0 0 0 0 0 0 0"
    ascent="750"
    descent="-250"
    x-height="462"
    cap-height="683"
    bbox="-27 -250 1007 943"
    underline-thickness="50"
    underline-position="-200"
    unicode-range="U+0020-2122"
  />
<missing-glyph horiz-adv-x="500" 
 />
    <glyph glyph-name=".notdef" horiz-adv-x="500" 
 />
    <glyph glyph-name=".null" horiz-adv-x="0" 
 />
    <glyph glyph-name="nonmarkingreturn" horiz-adv-x="333" 
 />
    <glyph glyph-name="space" unicode=" " horiz-adv-x="333" 
 />
    <glyph glyph-name="space" unicode="&#xa0;" horiz-adv-x="333" 
 />
    <glyph glyph-name="exclam" unicode="!" horiz-adv-x="271" 
d="M135 150q33 0 56.5 -23t23.5 -56t-23.5 -56.5t-56.5 -23.5t-56 23.5t-23 56.5t23 56t56 23zM155 200h-38q-21 55 -41.5 181.5t-20.5 195.5q0 115 81 115t81 -115q0 -69 -20.5 -195.5t-41.5 -181.5z" />
    <glyph glyph-name="quotedbl" unicode="&#x22;" horiz-adv-x="474" 
d="M272 716h150v-121l-26 -133h-98l-26 133v121zM52 716h150v-121l-26 -133h-98l-26 133v121z" />
    <glyph glyph-name="numbersign" unicode="#" horiz-adv-x="667" 
d="M34 505h151l39 183h105l-39 -183h159l39 183h105l-39 -183h79v-105h-101l-28 -133h129v-105h-151l-39 -183h-105l39 183h-159l-39 -183h-105l39 183h-79v105h101l28 133h-129v105zM268 400l-28 -133h159l28 133h-159z" />
    <glyph glyph-name="dollar" unicode="$" horiz-adv-x="510" 
d="M40 29v118q96 -47 181 -48v167q-96 37 -142 84t-46 118q0 76 52.5 128.5t135.5 60.5v35h71v-33q86 -3 148 -31v-115q-81 37 -148 38v-163q185 -63 185 -205q0 -75 -53 -129t-132 -60v-109h-71v106q-98 3 -181 38zM292 238v-129q58 19 58 62q0 39 -58 67zM221 413v131
q-66 -16 -66 -65q0 -42 66 -66z" />
    <glyph glyph-name="percent" unicode="%" horiz-adv-x="740" 
d="M445 175q0 87 35.5 134t102.5 47t103 -47t36 -134q0 -86 -36 -133t-103 -47t-102.5 47t-35.5 133zM548 175q0 -60 8 -84t27 -24q20 0 28 24t8 84q0 61 -8 85t-28 24t-27.5 -24t-7.5 -85zM18 511q0 87 35.5 134t102.5 47t103 -47t36 -134q0 -86 -36 -133t-103 -47
t-102.5 47t-35.5 133zM121 511q0 -60 8 -84t27 -24q20 0 28 24t8 84q0 61 -8 85t-28 24t-27.5 -24t-7.5 -85zM129 -26l383 736h96l-379 -736h-100z" />
    <glyph glyph-name="ampersand" unicode="&#x26;" horiz-adv-x="604" 
d="M588 0h-163l-34 57q-73 -66 -158 -66q-82 0 -137 55t-55 136q0 126 141 212q-40 83 -40 134q0 71 47.5 117.5t120.5 46.5q70 0 116.5 -43.5t46.5 -108.5q0 -92 -113 -168l59 -97q24 43 40 83h129q-36 -103 -99 -194zM328 159l-88 139q-35 -28 -49 -50.5t-14 -49.5
q0 -31 22.5 -54.5t52.5 -23.5q37 0 76 39zM304 466q60 42 60 78q0 19 -15 34t-35 15t-33.5 -13t-13.5 -32q0 -35 37 -82z" />
    <glyph glyph-name="quotesingle" unicode="'" horiz-adv-x="238" 
d="M44 716h150v-121l-26 -133h-98l-26 133v121z" />
    <glyph glyph-name="parenleft" unicode="(" horiz-adv-x="354" 
d="M212 230q0 -159 31 -264.5t104 -197.5h-101q-97 120 -143 231t-46 231t46 231t143 231h101q-73 -92 -104 -197.5t-31 -264.5z" />
    <glyph glyph-name="parenright" unicode=")" horiz-adv-x="354" 
d="M142 230q0 159 -31 264.5t-104 197.5h101q97 -120 143 -231t46 -231t-46 -231t-143 -231h-101q73 92 104 197.5t31 264.5z" />
    <glyph glyph-name="asterisk" unicode="*" horiz-adv-x="500" 
d="M285 445l-19 -10l51 -158q5 -16 -6 -21.5t-51 -5.5q-42 0 -52 5.5t-5 22.5l51 157l-18 9l-116 -120q-10 -12 -19.5 -6t-28.5 39q-22 39 -23.5 53.5t14.5 16.5l164 35v18l-150 33q-27 6 -28.5 16.5t21.5 51.5q22 38 34 43t22 -11l109 -116l19 10l-51 158q-5 16 6 21.5
t51 5.5q42 0 52 -5.5t5 -22.5l-51 -157l18 -9l116 120q10 12 19.5 6t28.5 -39q22 -39 23.5 -53.5t-14.5 -16.5l-164 -35v-18l150 -33q27 -6 28.5 -16.5t-21.5 -51.5q-22 -38 -34 -43t-22 11z" />
    <glyph glyph-name="plus" unicode="+" horiz-adv-x="667" 
d="M59 394h214v214h121v-214h214v-121h-214v-214h-121v214h-214v121z" />
    <glyph glyph-name="comma" unicode="," horiz-adv-x="271" 
d="M55 -152v25q45 39 52 122q-56 22 -56 79q0 33 23 56t56 23q42 0 68 -31.5t26 -83.5q0 -71 -43.5 -119.5t-125.5 -70.5z" />
    <glyph glyph-name="hyphen" unicode="-" horiz-adv-x="344" 
d="M37 163v133h269v-133h-269z" />
    <glyph glyph-name="hyphen" unicode="&#xad;" horiz-adv-x="344" 
d="M37 163v133h269v-133h-269z" />
    <glyph glyph-name="period" unicode="." horiz-adv-x="271" 
d="M136 150q33 0 56 -23t23 -56t-23 -56.5t-56 -23.5t-56.5 23.5t-23.5 56.5t23.5 56t56.5 23z" />
    <glyph glyph-name="slash" unicode="/" horiz-adv-x="281" 
d="M6 -9l166 692h103l-167 -692h-102z" />
    <glyph glyph-name="zero" unicode="0" 
d="M36 341q0 170 57.5 260.5t168.5 90.5q112 0 167.5 -94.5t55.5 -256.5t-55.5 -256t-169.5 -94q-109 0 -166.5 90t-57.5 260zM191 340q0 -120 12.5 -175.5t56.5 -55.5q41 0 55.5 52t14.5 180q0 122 -13.5 177.5t-56.5 55.5q-44 0 -56.5 -57t-12.5 -177z" />
    <glyph glyph-name="one" unicode="1" 
d="M183 0v683h155v-683h-155z" />
    <glyph glyph-name="two" unicode="2" 
d="M458 135v-135h-441v11q22 20 82 106.5t116.5 193t56.5 154.5q0 44 -27.5 73t-69.5 29q-60 0 -138 -50v124q86 51 177 51q88 0 145 -52.5t57 -133.5q0 -69 -39 -155t-133 -216h214z" />
    <glyph glyph-name="three" unicode="3" 
d="M50 26v122q78 -39 134 -39q51 0 82 26t31 69t-34.5 70t-94.5 23v114q53 -2 84 20.5t31 61.5q0 37 -27 59t-70 22q-54 0 -126 -36v122q93 32 159 32q97 0 158 -51t61 -133q0 -99 -103 -145q117 -47 117 -168q0 -89 -66.5 -146.5t-170.5 -57.5q-70 0 -165 35z" />
    <glyph glyph-name="four" unicode="4" 
d="M279 0v176h-259v111l265 405h138v-410h60v-106h-60v-176h-144zM279 282v236h-2l-153 -236h155z" />
    <glyph glyph-name="five" unicode="5" 
d="M61 17v120q59 -28 122 -28q53 0 86.5 27.5t33.5 70.5q0 44 -36 70t-98 26q-38 0 -80 -9v389h353v-135h-221v-134q110 -1 173.5 -56t63.5 -150q0 -98 -69 -157.5t-182 -59.5q-75 0 -146 26z" />
    <glyph glyph-name="six" unicode="6" 
d="M412 692l-157 -260q21 4 42 4q91 0 141 -63.5t50 -152.5q0 -98 -63.5 -163.5t-158.5 -65.5q-101 0 -164 66t-63 172q0 61 22.5 124.5t78.5 154.5l112 184h160zM189 221q0 -52 21.5 -82t57.5 -30q35 0 55.5 29.5t20.5 79.5q0 52 -20 80.5t-57 28.5q-36 0 -57 -28.5
t-21 -77.5z" />
    <glyph glyph-name="seven" unicode="7" 
d="M104 46l182 502h-252v135h442v-30l-237 -662z" />
    <glyph glyph-name="eight" unicode="8" 
d="M148 354q-93 50 -93 151q0 82 58.5 134.5t148.5 52.5q88 0 145.5 -53t57.5 -134q0 -103 -95 -151q117 -48 117 -163q0 -75 -58 -137.5t-171 -62.5q-111 0 -168.5 59t-57.5 139q0 61 27.5 100t88.5 65zM199 499q0 -106 63 -106q59 0 59 106q0 97 -61 97t-61 -97zM187 192
q0 -49 19.5 -77t53.5 -28t53 28.5t19 78.5q0 51 -19 80t-53 29q-35 0 -54 -29.5t-19 -81.5z" />
    <glyph glyph-name="nine" unicode="9" 
d="M112 -9l157 260q-21 -4 -42 -4q-90 0 -141 63t-51 153q0 98 63.5 163.5t158.5 65.5q101 0 164.5 -66t63.5 -172q0 -113 -74 -234l-140 -229h-159zM335 462q0 52 -21.5 82t-57.5 30q-35 0 -56 -29.5t-21 -79.5q0 -52 20.5 -80.5t57.5 -28.5q35 0 56.5 28.5t21.5 77.5z" />
    <glyph glyph-name="colon" unicode=":" horiz-adv-x="271" 
d="M136 451q33 0 56 -23t23 -56t-23 -56.5t-56 -23.5t-56.5 23.5t-23.5 56.5t23.5 56t56.5 23zM136 150q33 0 56 -23t23 -56t-23 -56.5t-56 -23.5t-56.5 23.5t-23.5 56.5t23.5 56t56.5 23z" />
    <glyph glyph-name="semicolon" unicode=";" horiz-adv-x="271" 
d="M55 -152v25q45 39 52 122q-56 22 -56 79q0 33 23 56t56 23q42 0 68 -31.5t26 -83.5q0 -71 -43.5 -119.5t-125.5 -70.5zM136 451q33 0 56 -23t23 -56t-23 -56.5t-56 -23.5t-56.5 23.5t-23.5 56.5t23.5 56t56.5 23z" />
    <glyph glyph-name="less" unicode="&#x3c;" horiz-adv-x="667" 
d="M60 278v110l547 228v-131l-381 -152l381 -152v-131z" />
    <glyph glyph-name="equal" unicode="=" horiz-adv-x="667" 
d="M59 276h549v-121h-549v121zM59 511h549v-121h-549v121z" />
    <glyph glyph-name="greater" unicode="&#x3e;" horiz-adv-x="667" 
d="M607 278l-547 -228v131l381 152l-381 152v131l547 -228v-110z" />
    <glyph glyph-name="question" unicode="?" horiz-adv-x="354" 
d="M173 200h-37q-40 59 -40 115q0 50 34 115.5t34 93.5q0 26 -18 44.5t-44 18.5q-36 0 -66 -29l-13 3l31 120q43 11 81 11q82 0 132 -43.5t50 -114.5q0 -41 -23 -85.5t-50 -77t-50 -72.5t-23 -74q0 -11 2 -25zM155 150q33 0 56.5 -23t23.5 -56t-23.5 -56.5t-56.5 -23.5
t-56 23.5t-23 56.5t23 56t56 23z" />
    <glyph glyph-name="at" unicode="@" horiz-adv-x="975" 
d="M683 505l-61 -386q-4 -19 -0.5 -28.5t17.5 -9.5q15 0 38 13.5t48.5 39.5t43 76t17.5 112q0 128 -73.5 203t-198.5 75q-144 0 -234 -99t-90 -257q0 -154 87 -247.5t230 -93.5q137 0 253 91h110q-58 -75 -157 -124t-204 -49q-172 0 -287.5 121t-115.5 302q0 57 13 115
t43.5 117.5t76 104.5t117 73.5t158.5 28.5q88 0 157.5 -30.5t112 -81.5t64.5 -114.5t22 -134.5q0 -79 -28.5 -144t-71 -102t-85.5 -57t-78 -20q-59 0 -76 58q-59 -58 -117 -58q-71 0 -115 58t-44 152q0 75 25.5 146t74.5 119t109 48q36 0 62 -16.5t53 -55.5l9 55h95z
M363 182q0 -50 17.5 -78t49.5 -28q28 0 55 27q26 26 43 100t17 144q0 91 -64 91q-54 0 -86 -76.5t-32 -179.5z" />
    <glyph glyph-name="A" unicode="A" horiz-adv-x="531" 
d="M6 0l179 687h161l179 -687h-150l-32 142h-154l-33 -142h-150zM211 253h109l-53 248h-2z" />
    <glyph glyph-name="B" unicode="B" horiz-adv-x="563" 
d="M66 0v683h231q98 0 149.5 -51.5t51.5 -121.5q0 -95 -92 -139q115 -53 115 -170q0 -85 -60 -143t-162 -58h-233zM221 111h50q95 0 95 92q0 40 -21 66.5t-64 26.5h-60v-185zM221 407h33q89 0 89 83q0 82 -89 82h-33v-165z" />
    <glyph glyph-name="C" unicode="C" 
d="M473 175v-133q-65 -51 -159 -51q-123 0 -200 94t-77 250q0 162 75.5 259.5t201.5 97.5q81 0 154 -38v-131q-69 40 -117 40q-70 0 -113 -55.5t-43 -163.5q0 -109 38 -166.5t110 -57.5q57 0 130 55z" />
    <glyph glyph-name="D" unicode="D" horiz-adv-x="604" 
d="M66 0v683h202q62 0 112.5 -19t84 -51t56 -76t32.5 -91.5t10 -98.5q0 -62 -16 -121t-48 -111t-89.5 -83.5t-133.5 -31.5h-210zM221 115h37q80 0 113.5 57t33.5 167q0 229 -139 229h-45v-453z" />
    <glyph glyph-name="E" unicode="E" horiz-adv-x="510" 
d="M66 0v683h398v-118h-243v-159h226v-118h-226v-170h252v-118h-407z" />
    <glyph glyph-name="F" unicode="F" horiz-adv-x="448" 
d="M66 0v683h359v-118h-204v-161h197v-118h-197v-286h-155z" />
    <glyph glyph-name="G" unicode="G" horiz-adv-x="594" 
d="M550 368v-297q-105 -80 -222 -80q-126 0 -208 96t-82 244q0 157 86.5 259t220.5 102q92 0 181 -54v-142q-46 37 -80.5 52t-79.5 15q-81 0 -125.5 -59.5t-44.5 -170.5q0 -98 34 -155.5t99 -57.5q35 0 66 18v115h-77v115h232z" />
    <glyph glyph-name="H" unicode="H" horiz-adv-x="615" 
d="M67 0v683h155v-279h171v279h155v-683h-155v286h-171v-286h-155z" />
    <glyph glyph-name="I" unicode="I" horiz-adv-x="292" 
d="M68 0v683h155v-683h-155z" />
    <glyph glyph-name="J" unicode="J" horiz-adv-x="292" 
d="M-18 -218l-9 125q19 -5 29 -5q67 0 67 90v691h155v-682q0 -68 -16 -116.5t-42.5 -72.5t-52.5 -34t-54 -10q-34 0 -77 14z" />
    <glyph glyph-name="K" unicode="K" horiz-adv-x="583" 
d="M54 0v683h155v-331h2l171 331h155l-170 -325l213 -358h-173l-196 330h-2v-330h-155z" />
    <glyph glyph-name="L" unicode="L" horiz-adv-x="479" 
d="M66 0v683h155v-560h250v-123h-405z" />
    <glyph glyph-name="M" unicode="M" horiz-adv-x="729" 
d="M68 0v683h140l157 -281l157 281h140v-683h-146v437h-2l-134 -259h-30l-134 259h-2v-437h-146z" />
    <glyph glyph-name="N" unicode="N" horiz-adv-x="615" 
d="M69 0v683h144l185 -386h2v386h146v-683h-135l-194 403h-2v-403h-146z" />
    <glyph glyph-name="O" unicode="O" horiz-adv-x="615" 
d="M38 348q0 84 23 151t61.5 108.5t86 63t98.5 21.5q50 0 96 -19.5t85.5 -59.5t63.5 -110t24 -162q0 -77 -17 -138.5t-44 -100.5t-63.5 -64.5t-72 -36t-72.5 -10.5q-52 0 -98.5 20.5t-85.5 61.5t-62 112t-23 163zM196 342q0 -108 25 -162.5t86 -54.5q56 0 83.5 49t27.5 168
q0 66 -8 110t-33.5 75t-69.5 31q-60 0 -85.5 -55t-25.5 -161z" />
    <glyph glyph-name="P" unicode="P" horiz-adv-x="542" 
d="M66 0v683h221q111 0 168 -61.5t57 -143.5q0 -25 -5 -49.5t-20 -52.5t-39 -49t-66 -35t-96 -14h-65v-278h-155zM221 396h45q50 0 70.5 21.5t20.5 62.5q0 36 -20 60.5t-66 24.5h-50v-169z" />
    <glyph glyph-name="Q" unicode="Q" horiz-adv-x="615" 
d="M248 -2q-101 26 -155.5 116.5t-54.5 230.5q0 168 79 257.5t190 89.5q110 0 181 -79q88 -98 88 -272q0 -125 -45 -211t-130 -121q46 -56 110 -56q19 0 45 11l5 2l14 -9l-84 -112q-81 2 -147 48t-96 105zM196 342q0 -111 25.5 -163.5t85.5 -52.5q59 0 85 51t26 165
q0 106 -23.5 161t-86.5 55q-60 0 -86 -53.5t-26 -162.5z" />
    <glyph glyph-name="R" unicode="R" horiz-adv-x="552" 
d="M66 0v683h223q103 0 161.5 -52.5t58.5 -138.5q0 -58 -27.5 -96.5t-87.5 -63.5q27 -15 48 -61.5t48.5 -134.5t46.5 -136h-161l-37 128q-17 60 -27 88t-24 46.5t-27 22t-40 3.5v-288h-155zM221 406h49q40 0 62 21t22 61q0 77 -86 77h-47v-159z" />
    <glyph glyph-name="S" unicode="S" horiz-adv-x="448" 
d="M44 45v147q88 -72 144 -72q28 0 45.5 16t17.5 41q0 27 -22 57t-53.5 59t-62.5 61t-53 75t-22 89q0 74 56.5 124t139.5 50q72 0 149 -42v-128q-88 49 -132 49q-28 0 -45.5 -13t-17.5 -34q0 -22 23 -50.5t55 -59t64.5 -64.5t55.5 -78.5t23 -89.5q0 -82 -56.5 -136.5
t-141.5 -54.5q-76 0 -167 54z" />
    <glyph glyph-name="T" unicode="T" horiz-adv-x="500" 
d="M172 0v565h-156v118h467v-118h-156v-565h-155z" />
    <glyph glyph-name="U" unicode="U" horiz-adv-x="594" 
d="M58 683h155v-470q0 -42 22 -67.5t62 -25.5q84 0 84 101v462h155v-449q0 -115 -60 -179t-179 -64q-112 0 -175.5 59t-63.5 182v451z" />
    <glyph glyph-name="V" unicode="V" horiz-adv-x="542" 
d="M235 -9l-229 692h157l105 -352h2l99 352h157l-219 -692h-72z" />
    <glyph glyph-name="W" unicode="W" horiz-adv-x="852" 
d="M221 -9l-214 692h149l97 -361h2l109 361h124l107 -361h2l99 361h149l-213 -692h-67l-139 442h-2l-136 -442h-67z" />
    <glyph glyph-name="X" unicode="X" horiz-adv-x="604" 
d="M17 0l200 362l-180 321h170l97 -188l98 188h169l-180 -321l200 -362h-169l-118 224l-118 -224h-169z" />
    <glyph glyph-name="Y" unicode="Y" horiz-adv-x="542" 
d="M198 0v312l-189 371h166l103 -210l85 210h165l-171 -371v-312h-159z" />
    <glyph glyph-name="Z" unicode="Z" horiz-adv-x="500" 
d="M13 0l244 565h-217v118h428l-242 -565h242v-118h-455z" />
    <glyph glyph-name="bracketleft" unicode="[" horiz-adv-x="375" 
d="M89 -220v903h275v-104h-134v-695h134v-104h-275z" />
    <glyph glyph-name="backslash" unicode="\" horiz-adv-x="281" 
d="M275 -9h-101l-168 692h104z" />
    <glyph glyph-name="bracketright" unicode="]" horiz-adv-x="375" 
d="M286 -220h-275v104h134v695h-134v104h275v-903z" />
    <glyph glyph-name="asciicircum" unicode="^" horiz-adv-x="583" 
d="M56 338l181 390h109l181 -390h-139l-96 239l-97 -239h-139z" />
    <glyph glyph-name="underscore" unicode="_" horiz-adv-x="500" 
d="M-6 -75h512v-50h-512v50z" />
    <glyph glyph-name="grave" unicode="`" horiz-adv-x="333" 
d="M270 525h-75l-185 167h176z" />
    <glyph glyph-name="a" unicode="a" horiz-adv-x="479" 
d="M470 118v-82q-72 -44 -120 -44q-64 0 -74 64q-37 -35 -67 -50t-67 -15q-50 0 -84.5 33.5t-34.5 82.5q0 65 60 105t187 82v16q0 63 -58 63q-71 0 -158 -70v105q48 34 92 48.5t100 14.5q168 0 168 -133v-188q0 -33 2.5 -41.5t11.5 -8.5q16 0 42 18zM270 119v111
q-62 -22 -89.5 -43t-27.5 -50q0 -22 14 -35.5t36 -13.5q29 0 67 31z" />
    <glyph glyph-name="b" unicode="b" horiz-adv-x="542" 
d="M58 0v683h144v-243q56 31 107 31q84 0 138.5 -67.5t54.5 -171.5q0 -101 -55 -169t-137 -68q-59 0 -108 45v-40h-144zM202 336v-193q32 -43 74 -43q35 0 55.5 34.5t20.5 95.5q0 63 -22 99.5t-60 36.5q-34 0 -68 -30z" />
    <glyph glyph-name="c" unicode="c" horiz-adv-x="427" 
d="M395 132v-111q-72 -30 -129 -30q-98 0 -164 67.5t-66 169.5q0 106 65 174.5t165 68.5q57 0 123 -31v-109q-50 30 -93 30q-48 0 -79 -36t-31 -91q0 -60 32 -97t83 -37q43 0 94 32z" />
    <glyph glyph-name="d" unicode="d" horiz-adv-x="542" 
d="M340 0v46q-61 -55 -125 -55q-77 0 -127.5 68.5t-50.5 171.5q0 106 51 173t131 67q61 0 121 -51v263h144v-683h-144zM340 147v176q-38 38 -73 38q-38 0 -59 -34t-21 -97q0 -62 20 -96.5t56 -34.5q42 0 77 48z" />
    <glyph glyph-name="e" unicode="e" horiz-adv-x="469" 
d="M418 124v-87q-78 -46 -168 -46q-61 0 -105.5 22.5t-66.5 59t-32 73.5t-10 76q0 108 58 178.5t147 70.5q85 0 138.5 -66.5t51.5 -195.5h-249q5 -59 35 -90.5t81 -31.5q57 0 120 37zM182 275h116q-2 114 -57 114q-59 0 -59 -114z" />
    <glyph glyph-name="f" unicode="f" horiz-adv-x="292" 
d="M72 0v380h-45v82h45v33q0 96 54.5 146.5t137.5 50.5q36 0 77 -9v-102q-31 6 -51 6q-74 0 -74 -80v-45h74v-82h-74v-380h-144z" />
    <glyph glyph-name="g" unicode="g" horiz-adv-x="479" 
d="M476 386h-91q46 -50 46 -110q0 -62 -46 -108q-26 -26 -66.5 -38t-72 -12t-55 -7t-23.5 -25q0 -19 31 -24.5t72 -4t90 -10t76 -38.5q38 -38 38 -93q0 -66 -57.5 -107t-171.5 -41q-64 0 -111 13t-69.5 33t-32.5 39.5t-10 38.5q0 37 27 64t76 38v2q-67 21 -67 75
q0 27 19.5 48t56.5 30q-87 55 -87 149q0 74 57 123.5t153 49.5h218v-85zM178 290q0 -99 65 -99q64 0 64 98q0 93 -65 93q-64 0 -64 -92zM146 -96q0 -57 106 -57q105 0 105 55q0 58 -106 58q-48 0 -76.5 -15t-28.5 -41z" />
    <glyph glyph-name="h" unicode="h" horiz-adv-x="531" 
d="M56 0v683h144v-281h2q47 69 128 69q62 0 105 -41t43 -129v-301h-144v283q0 43 -12.5 63t-42.5 20q-25 0 -40.5 -14t-38.5 -56v-296h-144z" />
    <glyph glyph-name="i" unicode="i" horiz-adv-x="260" 
d="M58 0v462h144v-462h-144zM131 689q33 0 56 -23t23 -56t-23 -56.5t-56 -23.5t-56.5 23.5t-23.5 56.5t23.5 56t56.5 23z" />
    <glyph glyph-name="j" unicode="j" horiz-adv-x="260" 
d="M35 -232l-38 126q39 15 51 33.5t12 57.5v477h144v-469q0 -111 -42.5 -159t-126.5 -66zM131 689q33 0 56 -23t23 -56t-23 -56.5t-56 -23.5t-56.5 23.5t-23.5 56.5t23.5 56t56.5 23z" />
    <glyph glyph-name="k" unicode="k" 
d="M358 235l161 -235h-157l-160 229v-229h-144v683h144v-450l141 229h151z" />
    <glyph glyph-name="l" unicode="l" horiz-adv-x="260" 
d="M58 0v683h144v-683h-144z" />
    <glyph glyph-name="m" unicode="m" horiz-adv-x="813" 
d="M57 0v462h144v-71h2q55 80 137 80q46 0 79 -24.5t50 -69.5q48 94 141 94q58 0 103.5 -41.5t45.5 -122.5v-307h-144v251q0 61 -9.5 87t-41.5 26q-47 0 -84 -64v-300h-144v272q0 92 -54 92q-41 0 -81 -68v-296h-144z" />
    <glyph glyph-name="n" unicode="n" horiz-adv-x="531" 
d="M56 0v462h144v-65h2q50 74 130 74q67 0 107 -43t40 -122v-306h-144v283q0 83 -56 83q-50 0 -79 -74v-292h-144z" />
    <glyph glyph-name="o" unicode="o" 
d="M485 229q0 -105 -63 -173t-162 -68q-97 0 -160.5 68.5t-63.5 172.5q0 111 67 176.5t157 65.5q92 0 158.5 -66.5t66.5 -175.5zM333 229q0 137 -73 137q-74 0 -74 -137q0 -136 74 -136q38 0 55.5 32.5t17.5 103.5z" />
    <glyph glyph-name="p" unicode="p" horiz-adv-x="542" 
d="M58 -220v682h144v-44q61 53 125 53q76 0 126 -69t50 -175q0 -101 -50 -168.5t-124 -67.5q-60 0 -127 52v-263h-144zM202 320v-177q36 -40 74 -40q35 0 56 35.5t21 96.5q0 62 -19 96.5t-53 34.5q-39 0 -79 -46z" />
    <glyph glyph-name="q" unicode="q" horiz-adv-x="542" 
d="M340 -220v245q-52 -34 -106 -34q-84 0 -139.5 67.5t-55.5 169.5q0 117 62.5 180t133.5 63q56 0 105 -36v27h144v-682h-144zM340 129v197q-32 40 -67 40q-39 0 -61.5 -36t-22.5 -99q0 -62 23 -98.5t63 -36.5q33 0 65 33z" />
    <glyph glyph-name="r" unicode="r" horiz-adv-x="396" 
d="M56 0v462h133v-175h2q46 180 127 180q40 0 83 -27l-31 -128q-34 23 -60 23q-53 0 -81.5 -79t-28.5 -185v-71h-144z" />
    <glyph glyph-name="s" unicode="s" horiz-adv-x="396" 
d="M40 30v107q84 -48 148 -48q24 0 38.5 10.5t14.5 29.5q0 17 -21.5 30t-52.5 24.5t-61.5 27t-52 44.5t-21.5 69q0 65 47.5 106t121.5 41q75 0 150 -42v-95q-45 24 -83 36q-34 10 -68 10q-56 0 -56 -33q0 -17 23 -30t56 -25t66.5 -28t56.5 -47.5t23 -75.5q0 -66 -48 -108
t-124 -42q-72 0 -157 39z" />
    <glyph glyph-name="t" unicode="t" horiz-adv-x="396" 
d="M367 136v-106q-74 -39 -130 -39q-62 0 -107.5 38t-45.5 119v223h-66v18l185 216h25v-143h132v-91h-132v-196q0 -73 52 -73q31 0 87 34z" />
    <glyph glyph-name="u" unicode="u" horiz-adv-x="531" 
d="M331 0v59h-2q-38 -68 -128 -68q-65 0 -107.5 42.5t-42.5 131.5v297h144v-289q0 -77 56 -77q58 0 80 73v293h144v-462h-144z" />
    <glyph glyph-name="v" unicode="v" horiz-adv-x="479" 
d="M208 -9l-195 471h138l93 -244h2l82 244h139l-184 -471h-75z" />
    <glyph glyph-name="w" unicode="w" horiz-adv-x="708" 
d="M184 -9l-173 471h137l74 -237h2l82 237h96l82 -237h2l74 237h137l-172 -471h-73l-97 273h-2l-95 -273h-74z" />
    <glyph glyph-name="x" unicode="x" horiz-adv-x="479" 
d="M11 0l146 235l-146 227h160l66 -117l63 117h161l-142 -225l150 -237h-160l-67 125l-71 -125h-160z" />
    <glyph glyph-name="y" unicode="y" horiz-adv-x="479" 
d="M42 -220l125 305l-162 377h146l88 -211l83 211h146l-280 -682h-146z" />
    <glyph glyph-name="z" unicode="z" horiz-adv-x="448" 
d="M18 0l188 357h-167v105h375l-183 -357h183v-105h-396z" />
    <glyph glyph-name="braceleft" unicode="{" horiz-adv-x="389" 
d="M31 172v118q64 1 85.5 40.5t21.5 142.5q0 85 8 120.5t35 62.5q44 44 136 44h48v-118h-26q-42 0 -57 -15q-14 -14 -17 -54.5t-1.5 -83.5t-11 -92.5t-41.5 -78.5q-17 -17 -37 -27q20 -10 37 -27q29 -29 41.5 -78.5t11 -92.5t1.5 -83.5t17 -54.5q15 -15 57 -15h26v-118h-48
q-92 0 -136 44q-27 27 -35 62.5t-8 120.5q0 103 -21.5 142.5t-85.5 40.5z" />
    <glyph glyph-name="bar" unicode="|" horiz-adv-x="566" 
d="M221 750h122v-1000h-122v1000z" />
    <glyph glyph-name="braceright" unicode="}" horiz-adv-x="389" 
d="M358 290v-118q-64 -1 -85.5 -40.5t-21.5 -142.5q0 -85 -8 -120.5t-35 -62.5q-44 -44 -136 -44h-48v118h26q42 0 57 15q14 14 17 54.5t1.5 83.5t11 92.5t41.5 78.5q17 17 37 27q-20 10 -37 27q-29 29 -41.5 78.5t-11 92.5t-1.5 83.5t-17 54.5q-15 15 -57 15h-26v118h48
q92 0 136 -44q27 -27 35 -62.5t8 -120.5q0 -103 21.5 -142.5t85.5 -40.5z" />
    <glyph glyph-name="asciitilde" unicode="~" horiz-adv-x="667" 
d="M607 447v-124q-79 -70 -156 -70q-45 0 -129 39q-78 39 -112 39q-73 0 -150 -74v125q79 69 159 69q47 0 127 -38.5t116 -38.5q63 0 145 73z" />
    <glyph glyph-name="currency" unicode="&#xa4;" horiz-adv-x="667" 
d="M69 517l79 79l66 -66q54 33 119 33q64 0 119 -33l66 66l79 -79l-66 -66q32 -58 32 -118q0 -65 -33 -119l67 -67l-79 -79l-67 67q-56 -33 -118 -33q-65 0 -118 33l-67 -67l-79 79l67 67q-34 48 -34 119q0 65 33 118zM333 452q-49 0 -84 -35t-35 -84q0 -50 35 -85t84 -35
t84.5 35.5t35.5 84.5t-35 84t-85 35z" />
    <glyph glyph-name="brokenbar" unicode="&#xa6;" horiz-adv-x="566" 
d="M221 175h122v-350h-122v350zM221 675h122v-350h-122v350z" />
    <glyph glyph-name="section" unicode="&#xa7;" 
d="M34 263q0 96 85 165q-45 54 -45 111q0 67 55.5 110t148.5 43q74 0 123.5 -33.5t49.5 -83.5q0 -29 -21.5 -49t-53.5 -20q-28 0 -41.5 15.5t-15.5 33.5t-13.5 33.5t-35.5 15.5q-26 0 -42.5 -14t-16.5 -33q0 -28 28.5 -58t69 -59.5t81 -62t69 -77t28.5 -93.5
q0 -48 -22.5 -96.5t-60.5 -82.5q43 -50 43 -109q0 -67 -52 -107.5t-137 -40.5q-79 0 -132 33.5t-53 82.5q0 29 21 48.5t52 19.5q27 0 40.5 -14.5t16.5 -32.5t15.5 -32.5t37.5 -14.5q26 0 42.5 11.5t16.5 29.5q0 29 -38 65.5t-96.5 79t-78.5 62.5q-68 68 -68 154zM336 104
q27 34 27 72q0 31 -20 55t-74 63t-80 61q-29 -32 -29 -72q0 -18 5 -31.5t22 -30t32 -28.5t52 -39.5t65 -49.5z" />
    <glyph glyph-name="copyright" unicode="&#xa9;" horiz-adv-x="738" 
d="M459 301l79 -27q-18 -61 -60.5 -93.5t-103.5 -32.5q-86 0 -137 56t-51 150q0 97 51 153.5t138 56.5q120 0 163 -119l-79 -19q-26 68 -86 68q-48 0 -75 -36.5t-27 -101.5t25.5 -102t69.5 -37q70 0 93 84zM369 730q155 0 264.5 -109.5t109.5 -264.5t-109.5 -264.5
t-264.5 -109.5t-264.5 109.5t-109.5 264.5t109.5 264.5t264.5 109.5zM369 657q-125 0 -213 -88.5t-88 -212.5t88 -212.5t213 -88.5t213 88.5t88 212.5t-88 212.5t-213 88.5z" />
    <glyph glyph-name="guillemotleft" unicode="&#xab;" horiz-adv-x="510" 
d="M355 230l132 -230h-116l-132 230l132 230h116zM143 230l132 -230h-116l-132 230l132 230h116z" />
    <glyph glyph-name="logicalnot" unicode="&#xac;" horiz-adv-x="667" 
d="M59 511h549v-356h-121v235h-428v121z" />
    <glyph glyph-name="registered" unicode="&#xae;" horiz-adv-x="738" 
d="M200 156v397h188q67 0 100.5 -31.5t33.5 -80.5q0 -44 -29 -74t-78 -36v-2q23 -8 38.5 -24.5t37.5 -54.5l55 -94h-100l-33 64q-30 58 -53 78.5t-58 20.5h-21v-163h-81zM281 382h88q31 0 49.5 15.5t18.5 39.5q0 53 -83 53h-73v-108zM-5 356q0 155 109.5 264.5t264.5 109.5
t264.5 -109.5t109.5 -264.5t-109.5 -264.5t-264.5 -109.5t-264.5 109.5t-109.5 264.5zM68 356q0 -124 88 -212.5t213 -88.5t213 88.5t88 212.5t-88 212.5t-213 88.5t-213 -88.5t-88 -212.5z" />
    <glyph glyph-name="degree" unicode="&#xb0;" horiz-adv-x="400" 
d="M200 647q-31 0 -53 -22t-22 -53t22 -53t53 -22t53 22t22 53t-22 53t-53 22zM200 728q64 0 110 -46t46 -110t-46 -110t-110 -46t-110 46t-46 110t46 110t110 46z" />
    <glyph glyph-name="plusminus" unicode="&#xb1;" horiz-adv-x="668" 
d="M60 89h549v-121h-549v121zM60 484h214v214h121v-214h214v-121h-214v-214h-121v214h-214v121z" />
    <glyph glyph-name="mu" unicode="&#xb5;" horiz-adv-x="611" 
d="M93 462h144v-267q0 -99 73 -99q63 0 63 99v267h144v-462h-132v55h-2q-3 -27 -24 -44.5t-49 -17.5q-26 0 -47.5 18t-23.5 44h-2v-230h-144v637z" />
    <glyph glyph-name="mu" unicode="&#x3bc;" horiz-adv-x="611" 
d="M93 462h144v-267q0 -99 73 -99q63 0 63 99v267h144v-462h-132v55h-2q-3 -27 -24 -44.5t-49 -17.5q-26 0 -47.5 18t-23.5 44h-2v-230h-144v637z" />
    <glyph glyph-name="paragraph" unicode="&#xb6;" horiz-adv-x="556" 
d="M309 -148h-116v429q-91 7 -141.5 59t-50.5 139t54 145.5t162 58.5h336v-128h-55v-703h-116v703h-73v-703z" />
    <glyph glyph-name="periodcentered" unicode="&#xb7;" horiz-adv-x="271" 
d="M136 421q33 0 56 -23t23 -56t-23 -56.5t-56 -23.5t-56.5 23.5t-23.5 56.5t23.5 56t56.5 23z" />
    <glyph glyph-name="periodcentered" unicode="&#x2219;" horiz-adv-x="271" 
d="M136 421q33 0 56 -23t23 -56t-23 -56.5t-56 -23.5t-56.5 23.5t-23.5 56.5t23.5 56t56.5 23z" />
    <glyph glyph-name="guillemotright" unicode="&#xbb;" horiz-adv-x="510" 
d="M367 230l-132 230h116l132 -230l-132 -230h-116zM155 230l-132 230h116l132 -230l-132 -230h-116z" />
    <glyph glyph-name="afii10023" unicode="&#x401;" horiz-adv-x="510" 
d="M66 0v683h398v-118h-243v-159h226v-118h-226v-170h252v-118h-407zM351 869q23 0 38.5 -15.5t15.5 -38.5t-15.5 -38.5t-38.5 -15.5t-38.5 15.5t-15.5 38.5t15.5 38.5t38.5 15.5zM160 869q22 0 38 -15.5t16 -38.5t-16 -38.5t-38 -15.5t-38 15.5t-16 38.5t16 38.5t38 15.5z
" />
    <glyph glyph-name="afii10051" unicode="&#x402;" horiz-adv-x="648" 
d="M16 565v118h467v-118h-156v-109q35 15 68 15q103 0 170.5 -60.5t67.5 -163.5q0 -107 -68 -179.5t-190 -72.5v119q44 0 72 35.5t28 97.5q0 51 -25 82.5t-75 31.5q-28 0 -48 -14v-347h-155v565h-156z" />
    <glyph glyph-name="afii10052" unicode="&#x403;" horiz-adv-x="448" 
d="M66 0v683h372v-118h-217v-565h-155zM146 749l84 167h176l-185 -167h-75z" />
    <glyph glyph-name="afii10053" unicode="&#x404;" 
d="M374 402v-118h-176q20 -164 145 -164q57 0 130 55v-133q-65 -51 -159 -51q-123 0 -200 94t-77 250q0 162 75.5 259.5t201.5 97.5q81 0 154 -38v-131q-69 40 -117 40q-59 0 -100 -40.5t-52 -120.5h175z" />
    <glyph glyph-name="afii10054" unicode="&#x405;" horiz-adv-x="448" 
d="M44 45v147q88 -72 144 -72q28 0 45.5 16t17.5 41q0 27 -22 57t-53.5 59t-62.5 61t-53 75t-22 89q0 74 56.5 124t139.5 50q72 0 149 -42v-128q-88 49 -132 49q-28 0 -45.5 -13t-17.5 -34q0 -22 23 -50.5t55 -59t64.5 -64.5t55.5 -78.5t23 -89.5q0 -82 -56.5 -136.5
t-141.5 -54.5q-76 0 -167 54z" />
    <glyph glyph-name="afii10055" unicode="&#x406;" horiz-adv-x="292" 
d="M68 0v683h155v-683h-155z" />
    <glyph glyph-name="afii10056" unicode="&#x407;" horiz-adv-x="292" 
d="M68 0v683h155v-683h-155zM242 869q22 0 38 -15.5t16 -38.5t-16 -38.5t-38 -15.5t-38 15.5t-16 38.5t16 38.5t38 15.5zM51 869q23 0 38.5 -15.5t15.5 -38.5t-15.5 -38.5t-38.5 -15.5t-38.5 15.5t-15.5 38.5t15.5 38.5t38.5 15.5z" />
    <glyph glyph-name="afii10057" unicode="&#x408;" horiz-adv-x="292" 
d="M-18 -218l-9 125q19 -5 29 -5q67 0 67 90v691h155v-682q0 -68 -16 -116.5t-42.5 -72.5t-52.5 -34t-54 -10q-34 0 -77 14z" />
    <glyph glyph-name="afii10058" unicode="&#x409;" horiz-adv-x="732" 
d="M6 0l179 687h161l63 -240h63q56 0 101 -15t72 -38.5t45.5 -53t25.5 -57t7 -52.5q0 -53 -23.5 -104.5t-77 -89t-125.5 -37.5h-122l-108 501h-2l-109 -501h-150zM476 336h-38l58 -223q36 8 54 41.5t18 76.5q0 42 -23 73.5t-69 31.5z" />
    <glyph glyph-name="afii10059" unicode="&#x40a;" horiz-adv-x="834" 
d="M67 0v683h155v-284h171v284h155v-284h36q63 0 111.5 -18t75.5 -46.5t40 -60t13 -62.5q0 -90 -59.5 -151t-180.5 -61h-191v288h-171v-288h-155zM548 111h19q49 0 75.5 27t26.5 72q0 36 -27.5 57t-77.5 21h-16v-177z" />
    <glyph glyph-name="afii10060" unicode="&#x40b;" horiz-adv-x="628" 
d="M172 0v565h-156v118h467v-118h-156v-104h70q102 0 157.5 -51t55.5 -140v-270h-155v259q0 48 -19 66t-61 18h-48v-343h-155z" />
    <glyph glyph-name="afii10061" unicode="&#x40c;" horiz-adv-x="580" 
d="M68 683h155v-268q32 0 52.5 13t34.5 49l42 109q38 102 156 102q23 0 47 -3l-9 -125q-66 0 -84 -52l-19 -55q-22 -65 -59 -97q75 -55 131 -215l50 -141h-164l-39 117q-60 180 -139 180v-297h-155v683zM215 753l84 167h176l-185 -167h-75z" />
    <glyph glyph-name="afii10062" unicode="&#x40e;" horiz-adv-x="510" 
d="M344 683h160l-150 -627q-23 -97 -51.5 -149.5t-56.5 -68t-71 -15.5q-41 0 -78 17v110q13 -9 45 -9q69 0 69 58l-205 684h168l97 -434h3zM195 776l84 167h176l-185 -167h-75z" />
    <glyph glyph-name="afii10145" unicode="&#x40f;" horiz-adv-x="615" 
d="M67 0v683h155v-565h171v565h155v-683h-169l-74 -134l-70 134h-168z" />
    <glyph glyph-name="afii10017" unicode="&#x410;" horiz-adv-x="531" 
d="M6 0l179 687h161l179 -687h-150l-32 142h-154l-33 -142h-150zM211 253h109l-53 248h-2z" />
    <glyph glyph-name="afii10018" unicode="&#x411;" horiz-adv-x="553" 
d="M474 683v-111h-253v-149h60q62 0 111 -21t75.5 -54t40 -67t13.5 -66q0 -92 -56 -153.5t-176 -61.5h-223v683h408zM221 111h56q39 0 64 30t25 74q0 38 -25.5 67.5t-63.5 29.5h-56v-201z" />
    <glyph glyph-name="afii10019" unicode="&#x412;" horiz-adv-x="563" 
d="M66 0v683h231q98 0 149.5 -51.5t51.5 -121.5q0 -95 -92 -139q115 -53 115 -170q0 -85 -60 -143t-162 -58h-233zM221 111h50q95 0 95 92q0 40 -21 66.5t-64 26.5h-60v-185zM221 407h33q89 0 89 83q0 82 -89 82h-33v-165z" />
    <glyph glyph-name="afii10020" unicode="&#x413;" horiz-adv-x="448" 
d="M66 0v683h372v-118h-217v-565h-155z" />
    <glyph glyph-name="afii10021" unicode="&#x414;" horiz-adv-x="635" 
d="M630 111v-299h-139v188h-347v-188h-139v299h82l150 576h161l150 -576h82zM317 501l-85 -390h171l-84 390h-2z" />
    <glyph glyph-name="afii10022" unicode="&#x415;" horiz-adv-x="510" 
d="M66 0v683h398v-118h-243v-159h226v-118h-226v-170h252v-118h-407z" />
    <glyph glyph-name="afii10024" unicode="&#x416;" horiz-adv-x="847" 
d="M502 415q49 0 74 62l42 109q38 102 156 102q23 0 47 -3l-9 -125q-66 0 -84 -52l-19 -55q-22 -65 -59 -97q75 -55 131 -215l50 -141h-164l-39 117q-61 180 -126 180v-297h-155v297q-65 0 -126 -180l-39 -117h-164l50 141q56 160 131 215q-37 32 -59 97l-19 55
q-18 52 -84 52l-9 125q24 3 47 3q118 0 156 -102l42 -109q25 -62 74 -62v268h155v-268z" />
    <glyph glyph-name="afii10025" unicode="&#x417;" horiz-adv-x="487" 
d="M43 26v122q78 -39 134 -39q51 0 82 26t31 69q0 93 -115 93h-30v114h41q49 0 73.5 22.5t24.5 59.5t-27.5 59t-70.5 22q-61 0 -133 -36v122q93 32 176 32q86 0 148 -45.5t62 -123.5q0 -52 -29 -94t-82 -66q117 -46 117 -173q0 -88 -64 -143.5t-159 -55.5q-84 0 -179 35z
" />
    <glyph glyph-name="afii10026" unicode="&#x418;" horiz-adv-x="615" 
d="M67 -5v688h155v-385l236 385h90v-683h-155v367l-226 -372h-100z" />
    <glyph glyph-name="afii10027" unicode="&#x419;" horiz-adv-x="615" 
d="M67 -5v688h155v-385l236 385h90v-683h-155v367l-226 -372h-100zM248 746l84 167h176l-185 -167h-75z" />
    <glyph glyph-name="afii10028" unicode="&#x41a;" horiz-adv-x="580" 
d="M68 683h155v-268q32 0 52.5 13t34.5 49l42 109q38 102 156 102q23 0 47 -3l-9 -125q-66 0 -84 -52l-19 -55q-22 -65 -59 -97q75 -55 131 -215l50 -141h-164l-39 117q-60 180 -139 180v-297h-155v683z" />
    <glyph glyph-name="afii10029" unicode="&#x41b;" horiz-adv-x="531" 
d="M6 0l179 687h161l179 -687h-150l-108 501h-2l-109 -501h-150z" />
    <glyph glyph-name="afii10030" unicode="&#x41c;" horiz-adv-x="729" 
d="M68 0v683h140l157 -281l157 281h140v-683h-146v437h-2l-134 -259h-30l-134 259h-2v-437h-146z" />
    <glyph glyph-name="afii10031" unicode="&#x41d;" horiz-adv-x="615" 
d="M67 0v683h155v-279h171v279h155v-683h-155v286h-171v-286h-155z" />
    <glyph glyph-name="afii10032" unicode="&#x41e;" horiz-adv-x="615" 
d="M38 348q0 84 23 151t61.5 108.5t86 63t98.5 21.5q50 0 96 -19.5t85.5 -59.5t63.5 -110t24 -162q0 -77 -17 -138.5t-44 -100.5t-63.5 -64.5t-72 -36t-72.5 -10.5q-52 0 -98.5 20.5t-85.5 61.5t-62 112t-23 163zM196 342q0 -108 25 -162.5t86 -54.5q56 0 83.5 49t27.5 168
q0 66 -8 110t-33.5 75t-69.5 31q-60 0 -85.5 -55t-25.5 -161z" />
    <glyph glyph-name="afii10033" unicode="&#x41f;" horiz-adv-x="615" 
d="M67 0v683h481v-683h-155v565h-171v-565h-155z" />
    <glyph glyph-name="afii10034" unicode="&#x420;" horiz-adv-x="542" 
d="M66 0v683h221q111 0 168 -61.5t57 -143.5q0 -25 -5 -49.5t-20 -52.5t-39 -49t-66 -35t-96 -14h-65v-278h-155zM221 396h45q50 0 70.5 21.5t20.5 62.5q0 36 -20 60.5t-66 24.5h-50v-169z" />
    <glyph glyph-name="afii10035" unicode="&#x421;" 
d="M473 175v-133q-65 -51 -159 -51q-123 0 -200 94t-77 250q0 162 75.5 259.5t201.5 97.5q81 0 154 -38v-131q-69 40 -117 40q-70 0 -113 -55.5t-43 -163.5q0 -109 38 -166.5t110 -57.5q57 0 130 55z" />
    <glyph glyph-name="afii10036" unicode="&#x422;" horiz-adv-x="500" 
d="M172 0v565h-156v118h467v-118h-156v-565h-155z" />
    <glyph glyph-name="afii10037" unicode="&#x423;" horiz-adv-x="510" 
d="M344 683h160l-150 -627q-23 -97 -51.5 -149.5t-56.5 -68t-71 -15.5q-41 0 -78 17v110q13 -9 45 -9q69 0 69 58l-205 684h168l97 -434h3z" />
    <glyph glyph-name="afii10038" unicode="&#x424;" horiz-adv-x="720" 
d="M282 625v58h156v-58q108 0 185 -80.5t77 -200.5q0 -122 -77 -202.5t-185 -80.5v-61h-156v61q-108 0 -185 80.5t-77 202.5q0 120 77 200.5t185 80.5zM438 507v-328q37 0 69.5 49t32.5 117q0 70 -32.5 116t-69.5 46zM282 179v328q-37 0 -69.5 -46t-32.5 -116
q0 -68 32.5 -117t69.5 -49z" />
    <glyph glyph-name="afii10039" unicode="&#x425;" horiz-adv-x="604" 
d="M17 0l200 362l-180 321h170l97 -188l98 188h169l-180 -321l200 -362h-169l-118 224l-118 -224h-169z" />
    <glyph glyph-name="afii10040" unicode="&#x426;" horiz-adv-x="650" 
d="M67 0v683h155v-565h171v565h155v-565h81v-274h-141v156h-421z" />
    <glyph glyph-name="afii10041" unicode="&#x427;" horiz-adv-x="560" 
d="M493 0h-155v237h-41q-121 0 -188 74t-67 185v187h155v-180q0 -75 27 -111.5t90 -36.5h24v328h155v-683z" />
    <glyph glyph-name="afii10042" unicode="&#x428;" horiz-adv-x="835" 
d="M768 0h-701v683h155v-565h118v565h155v-565h118v565h155v-683z" />
    <glyph glyph-name="afii10043" unicode="&#x429;" horiz-adv-x="870" 
d="M849 -156h-141v156h-641v683h155v-565h118v565h155v-565h118v565h155v-565h81v-274z" />
    <glyph glyph-name="afii10044" unicode="&#x42a;" horiz-adv-x="563" 
d="M258 683v-236h48q62 0 110.5 -22.5t75 -57t39.5 -69.5t13 -67q0 -43 -13.5 -82.5t-40.5 -73.5t-74.5 -54.5t-109.5 -20.5h-203v572h-91v111h246zM258 111h39q47 0 69.5 35.5t22.5 84.5q0 42 -23 73.5t-69 31.5h-39v-225z" />
    <glyph glyph-name="afii10045" unicode="&#x42b;" horiz-adv-x="777" 
d="M67 683h155v-236h33q62 0 111 -22.5t75.5 -57t39.5 -69.5t13 -67q0 -43 -13.5 -82.5t-40.5 -73.5t-75 -54.5t-110 -20.5h-188v683zM222 111h18q47 0 73 36t26 84q0 40 -26 72.5t-73 32.5h-18v-225zM555 0v683h155v-683h-155z" />
    <glyph glyph-name="afii10046" unicode="&#x42c;" horiz-adv-x="526" 
d="M66 683h155v-236h48q62 0 110.5 -22.5t75 -57t39.5 -69.5t13 -67q0 -43 -13.5 -82.5t-40.5 -73.5t-74.5 -54.5t-109.5 -20.5h-203v683zM221 111h39q47 0 69.5 35.5t22.5 84.5q0 42 -23 73.5t-69 31.5h-39v-225z" />
    <glyph glyph-name="afii10047" unicode="&#x42d;" horiz-adv-x="523" 
d="M48 42v133q73 -55 130 -55q123 0 144 161h-174v118h174q-11 81 -51.5 122.5t-100.5 41.5q-48 0 -117 -40v131q73 38 154 38q126 0 201.5 -97.5t75.5 -259.5q0 -156 -77 -250t-200 -94q-94 0 -159 51z" />
    <glyph glyph-name="afii10048" unicode="&#x42e;" horiz-adv-x="870" 
d="M68 0v683h155v-276h74q15 136 91 210.5t174 74.5q50 0 96 -19.5t85.5 -59.5t63.5 -110t24 -162q0 -77 -17 -138.5t-44 -100.5t-63.5 -64.5t-72 -36t-72.5 -10.5q-100 0 -176 74.5t-90 223.5h-73v-289h-155zM451 342q0 -108 25 -162.5t86 -54.5q56 0 83.5 49t27.5 168
q0 66 -8 110t-33.5 75t-69.5 31q-60 0 -85.5 -55t-25.5 -161z" />
    <glyph glyph-name="afii10049" unicode="&#x42f;" horiz-adv-x="576" 
d="M509 683v-683h-155v259q-41 0 -73 -28t-62 -106l-48 -125h-155l46 119q21 53 55.5 105t60.5 66q-50 29 -81 77t-31 104q0 88 59.5 150t160.5 62h223zM305 377h49v188h-47q-42 0 -64 -25.5t-22 -67.5q0 -41 23 -68t61 -27z" />
    <glyph glyph-name="afii10065" unicode="&#x430;" horiz-adv-x="479" 
d="M470 118v-82q-72 -44 -120 -44q-64 0 -74 64q-37 -35 -67 -50t-67 -15q-50 0 -84.5 33.5t-34.5 82.5q0 65 60 105t187 82v16q0 63 -58 63q-71 0 -158 -70v105q48 34 92 48.5t100 14.5q168 0 168 -133v-188q0 -33 2.5 -41.5t11.5 -8.5q16 0 42 18zM270 119v111
q-62 -22 -89.5 -43t-27.5 -50q0 -22 14 -35.5t36 -13.5q29 0 67 31z" />
    <glyph glyph-name="afii10066" unicode="&#x431;" horiz-adv-x="517" 
d="M446 711l-13 -132q-126 -10 -184.5 -39t-67.5 -98l-5 -39l8 -7q14 28 50 47t66 19q89 0 135.5 -65t46.5 -166q0 -100 -56 -171.5t-163 -71.5q-108 0 -168.5 84t-60.5 220q0 75 6.5 129t27 106t55.5 85.5t94 57t141 32.5zM332 232q0 125 -74 125q-34 0 -54 -33t-20 -92
q0 -65 20 -102t54 -37q74 0 74 139z" />
    <glyph glyph-name="afii10067" unicode="&#x432;" horiz-adv-x="466" 
d="M56 462h215q28 0 53.5 -5t51 -17t41 -36t15.5 -58q0 -44 -27 -70t-63 -34q41 -9 71 -36t30 -72q0 -60 -39 -97t-109 -37h-239v462zM200 378v-113h21q75 0 75 62q0 51 -72 51h-24zM200 189v-105h33q71 0 71 61q0 44 -69 44h-35z" />
    <glyph glyph-name="afii10068" unicode="&#x433;" horiz-adv-x="363" 
d="M357 462v-120h-157v-342h-144v462h301z" />
    <glyph glyph-name="afii10069" unicode="&#x434;" horiz-adv-x="531" 
d="M404 0h-277v-134h-121v239h72l140 366h101l134 -366h72v-239h-121v134zM316 105l-55 165h-2l-53 -165h110z" />
    <glyph glyph-name="afii10070" unicode="&#x435;" horiz-adv-x="469" 
d="M418 124v-87q-78 -46 -168 -46q-61 0 -105.5 22.5t-66.5 59t-32 73.5t-10 76q0 108 58 178.5t147 70.5q85 0 138.5 -66.5t51.5 -195.5h-249q5 -59 35 -90.5t81 -31.5q57 0 120 37zM182 275h116q-2 114 -57 114q-59 0 -59 -114z" />
    <glyph glyph-name="afii10072" unicode="&#x436;" horiz-adv-x="688" 
d="M272 278v184h144v-184q14 0 31.5 16.5t30.5 47.5l51 120h142l-38 -88q-47 -110 -86 -141q51 -32 92 -141l35 -92h-146l-22 70q-14 47 -42.5 82.5t-47.5 35.5v-188h-144v188q-19 0 -47.5 -35.5t-42.5 -82.5l-22 -70h-146l35 92q41 109 92 141q-39 31 -86 141l-38 88h142
l51 -120q13 -31 30.5 -47.5t31.5 -16.5z" />
    <glyph glyph-name="afii10073" unicode="&#x437;" horiz-adv-x="404" 
d="M115 274h22q54 0 73 12.5t19 40.5q0 21 -21.5 33t-54.5 12q-74 0 -114 -23v89q80 33 179 33q63 0 110 -28.5t47 -79.5q0 -50 -31 -78t-78 -36q47 -11 81 -40t34 -79q0 -75 -56 -108.5t-142 -33.5q-31 0 -82 10t-75 24v103q48 -38 131 -38q78 0 78 55q0 50 -88 50h-32v82z
" />
    <glyph glyph-name="afii10074" unicode="&#x438;" horiz-adv-x="535" 
d="M335 0v239l-200 -242h-79v465h144v-239l192 239h87v-462h-144z" />
    <glyph glyph-name="afii10075" unicode="&#x439;" horiz-adv-x="535" 
d="M335 0v239l-200 -242h-79v465h144v-239l192 239h87v-462h-144zM206 521l84 167h176l-185 -167h-75z" />
    <glyph glyph-name="afii10076" unicode="&#x43a;" horiz-adv-x="478" 
d="M200 462v-184q43 0 70 64l51 120h142l-38 -88q-47 -110 -86 -141q51 -32 92 -141l35 -92h-146l-22 70q-16 52 -44 85t-54 33v-188h-144v462h144z" />
    <glyph glyph-name="afii10077" unicode="&#x43b;" horiz-adv-x="479" 
d="M13 0l180 471h101l173 -471h-141l-90 270h-2l-87 -270h-134z" />
    <glyph glyph-name="afii10078" unicode="&#x43c;" horiz-adv-x="577" 
d="M59 462h125l103 -221l106 221h123l23 -462h-124l-13 251l-115 -230l-113 230l-12 -251h-124z" />
    <glyph glyph-name="afii10079" unicode="&#x43d;" horiz-adv-x="535" 
d="M335 0v182h-135v-182h-144v462h144v-175h135v175h144v-462h-144z" />
    <glyph glyph-name="afii10080" unicode="&#x43e;" 
d="M485 229q0 -105 -63 -173t-162 -68q-97 0 -160.5 68.5t-63.5 172.5q0 111 67 176.5t157 65.5q92 0 158.5 -66.5t66.5 -175.5zM333 229q0 137 -73 137q-74 0 -74 -137q0 -136 74 -136q38 0 55.5 32.5t17.5 103.5z" />
    <glyph glyph-name="afii10081" unicode="&#x43f;" horiz-adv-x="535" 
d="M335 0v357h-135v-357h-144v462h423v-462h-144z" />
    <glyph glyph-name="afii10082" unicode="&#x440;" horiz-adv-x="542" 
d="M58 -220v682h144v-44q61 53 125 53q76 0 126 -69t50 -175q0 -101 -50 -168.5t-124 -67.5q-60 0 -127 52v-263h-144zM202 320v-177q36 -40 74 -40q35 0 56 35.5t21 96.5q0 62 -19 96.5t-53 34.5q-39 0 -79 -46z" />
    <glyph glyph-name="afii10083" unicode="&#x441;" horiz-adv-x="427" 
d="M395 132v-111q-72 -30 -129 -30q-98 0 -164 67.5t-66 169.5q0 106 65 174.5t165 68.5q57 0 123 -31v-109q-50 30 -93 30q-48 0 -79 -36t-31 -91q0 -60 32 -97t83 -37q43 0 94 32z" />
    <glyph glyph-name="afii10084" unicode="&#x442;" horiz-adv-x="406" 
d="M275 0h-144v342h-126v120h396v-120h-126v-342z" />
    <glyph glyph-name="afii10085" unicode="&#x443;" horiz-adv-x="479" 
d="M42 -220l125 305l-162 377h146l88 -211l83 211h146l-280 -682h-146z" />
    <glyph glyph-name="afii10086" unicode="&#x444;" horiz-adv-x="708" 
d="M282 415v268h144v-268q17 26 49.5 41t62.5 15q70 0 110 -64.5t40 -179.5q0 -97 -41.5 -166.5t-107.5 -69.5q-35 0 -69 17.5t-41 33.5h-3v-262h-144v262h-3q-7 -16 -41 -33.5t-69 -17.5q-66 0 -107.5 69.5t-41.5 166.5q0 115 40 179.5t110 64.5q30 0 62.5 -15t49.5 -41z
M426 284v-96q0 -40 13 -62.5t33 -22.5q31 0 48.5 35.5t17.5 96.5q0 66 -12.5 98.5t-44.5 32.5q-22 0 -38.5 -22.5t-16.5 -59.5zM282 188v96q0 37 -16.5 59.5t-38.5 22.5q-32 0 -44.5 -32.5t-12.5 -98.5q0 -61 17.5 -96.5t48.5 -35.5q20 0 33 22.5t13 62.5z" />
    <glyph glyph-name="afii10087" unicode="&#x445;" horiz-adv-x="479" 
d="M11 0l146 235l-146 227h160l66 -117l63 117h161l-142 -225l150 -237h-160l-67 125l-71 -125h-160z" />
    <glyph glyph-name="afii10088" unicode="&#x446;" horiz-adv-x="579" 
d="M555 -129h-125v129h-374v462h144v-357h135v357h144v-357h76v-234z" />
    <glyph glyph-name="afii10089" unicode="&#x447;" horiz-adv-x="490" 
d="M290 0v177q-39 -33 -104 -33q-69 0 -115 43.5t-46 114.5v160h144v-154q0 -59 64 -59q17 0 34 10t23 26v177h144v-462h-144z" />
    <glyph glyph-name="afii10090" unicode="&#x448;" horiz-adv-x="716" 
d="M660 0h-604v462h144v-357h86v357h144v-357h86v357h144v-462z" />
    <glyph glyph-name="afii10091" unicode="&#x449;" horiz-adv-x="760" 
d="M611 -129v129h-555v462h144v-357h86v357h144v-357h86v357h144v-357h76v-234h-125z" />
    <glyph glyph-name="afii10092" unicode="&#x44a;" horiz-adv-x="487" 
d="M6 378v84h236v-137h47q88 0 135.5 -50t47.5 -108q0 -65 -47 -116t-132 -51h-206v378h-81zM242 235v-145h4q45 0 66 18.5t21 58.5q0 30 -22 49t-65 19h-4z" />
    <glyph glyph-name="afii10093" unicode="&#x44b;" horiz-adv-x="668" 
d="M468 0v462h144v-462h-144zM211 462v-137h33q88 0 135 -50t47 -108q0 -64 -48.5 -115.5t-133.5 -51.5h-188v462h155zM211 235v-145q35 0 55.5 19t20.5 58q0 29 -21.5 48.5t-54.5 19.5z" />
    <glyph glyph-name="afii10094" unicode="&#x44c;" horiz-adv-x="457" 
d="M211 462v-137h47q88 0 135.5 -50t47.5 -108q0 -65 -47 -116t-132 -51h-206v462h155zM211 235v-145h4q45 0 66 18.5t21 58.5q0 30 -22 49t-65 19h-4z" />
    <glyph glyph-name="afii10095" unicode="&#x44d;" horiz-adv-x="427" 
d="M36 21v111q51 -32 94 -32q40 0 69 23t40 63h-118v90h118q-11 39 -38.5 62t-65.5 23q-43 0 -93 -30v109q66 31 123 31q100 0 165 -68.5t65 -174.5q0 -102 -66 -169.5t-164 -67.5q-57 0 -129 30z" />
    <glyph glyph-name="afii10096" unicode="&#x44e;" horiz-adv-x="739" 
d="M703 229q0 -105 -63 -173t-162 -68q-86 0 -147 55t-74 143h-57v-186h-144v462h144v-186h58q14 90 77.5 142.5t142.5 52.5q92 0 158.5 -66.5t66.5 -175.5zM551 229q0 137 -73 137q-74 0 -74 -137q0 -136 74 -136q38 0 55.5 32.5t17.5 103.5z" />
    <glyph glyph-name="afii10097" unicode="&#x44f;" horiz-adv-x="475" 
d="M215 462h204v-462h-133v159h-21q-27 0 -51 -21.5t-35 -53.5l-29 -84h-140l34 92q16 44 46.5 72.5t59.5 34.5q-34 7 -65 43.5t-31 82.5q0 65 51.5 101t109.5 36zM286 249v123h-24q-31 0 -51.5 -15t-20.5 -48q0 -60 75 -60h21z" />
    <glyph glyph-name="afii10071" unicode="&#x451;" horiz-adv-x="469" 
d="M418 124v-87q-78 -46 -168 -46q-61 0 -105.5 22.5t-66.5 59t-32 73.5t-10 76q0 108 58 178.5t147 70.5q85 0 138.5 -66.5t51.5 -195.5h-249q5 -59 35 -90.5t81 -31.5q57 0 120 37zM182 275h116q-2 114 -57 114q-59 0 -59 -114zM330 661q22 0 38 -15.5t16 -38.5t-16 -38.5
t-38 -15.5t-38 15.5t-16 38.5t16 38.5t38 15.5zM139 661q23 0 38.5 -15.5t15.5 -38.5t-15.5 -38.5t-38.5 -15.5t-38.5 15.5t-15.5 38.5t15.5 38.5t38.5 15.5z" />
    <glyph glyph-name="afii10099" unicode="&#x452;" horiz-adv-x="531" 
d="M-9 619h65v64h144v-64h202v-90h-202v-127h2q47 69 128 69q62 0 105 -41t43 -129v-349q0 -86 -32.5 -129t-86.5 -43q-70 0 -115 29v73q16 -13 46 -13q21 0 32.5 16t11.5 43v355q0 43 -12.5 63t-42.5 20q-25 0 -40.5 -14t-38.5 -56v-296h-144v529h-65v90z" />
    <glyph glyph-name="afii10100" unicode="&#x453;" horiz-adv-x="372" 
d="M357 462v-120h-157v-342h-144v462h301zM108 520l84 167h176l-185 -167h-75z" />
    <glyph glyph-name="afii10101" unicode="&#x454;" horiz-adv-x="427" 
d="M309 277v-90h-117q11 -40 40 -63.5t69 -23.5q43 0 94 32v-111q-72 -30 -129 -30q-98 0 -164 67.5t-66 169.5q0 106 65 174.5t165 68.5q57 0 123 -31v-109q-50 30 -93 30q-38 0 -65.5 -22.5t-38.5 -61.5h117z" />
    <glyph glyph-name="afii10102" unicode="&#x455;" horiz-adv-x="396" 
d="M40 30v107q84 -48 148 -48q24 0 38.5 10.5t14.5 29.5q0 17 -21.5 30t-52.5 24.5t-61.5 27t-52 44.5t-21.5 69q0 65 47.5 106t121.5 41q75 0 150 -42v-95q-45 24 -83 36q-34 10 -68 10q-56 0 -56 -33q0 -17 23 -30t56 -25t66.5 -28t56.5 -47.5t23 -75.5q0 -66 -48 -108
t-124 -42q-72 0 -157 39z" />
    <glyph glyph-name="afii10103" unicode="&#x456;" horiz-adv-x="260" 
d="M58 0v462h144v-462h-144zM131 689q33 0 56 -23t23 -56t-23 -56.5t-56 -23.5t-56.5 23.5t-23.5 56.5t23.5 56t56.5 23z" />
    <glyph glyph-name="afii10104" unicode="&#x457;" horiz-adv-x="260" 
d="M58 0v462h144v-462h-144zM226 661q22 0 38 -15.5t16 -38.5t-16 -38.5t-38 -15.5t-38 15.5t-16 38.5t16 38.5t38 15.5zM35 661q23 0 38.5 -15.5t15.5 -38.5t-15.5 -38.5t-38.5 -15.5t-38.5 15.5t-15.5 38.5t15.5 38.5t38.5 15.5z" />
    <glyph glyph-name="afii10105" unicode="&#x458;" horiz-adv-x="260" 
d="M35 -232l-38 126q39 15 51 33.5t12 57.5v477h144v-469q0 -111 -42.5 -159t-126.5 -66zM131 689q33 0 56 -23t23 -56t-23 -56.5t-56 -23.5t-56.5 23.5t-23.5 56.5t23.5 56t56.5 23z" />
    <glyph glyph-name="afii10106" unicode="&#x459;" horiz-adv-x="640" 
d="M13 0l180 471h101l76 -206q44 59 120 59q72 0 105.5 -48.5t33.5 -108.5q0 -63 -52 -115t-138 -52h-113l-90 270h-2l-87 -270h-134zM434 90q24 0 40 21.5t16 53.5q0 61 -52 61q-18 0 -29.5 -16t-4.5 -37z" />
    <glyph glyph-name="afii10107" unicode="&#x45a;" horiz-adv-x="724" 
d="M479 462v-187q39 41 99 41q58 0 94 -37.5t36 -97.5q0 -83 -68.5 -132t-160.5 -49h-144v181h-135v-181h-144v462h144v-176h135v176h144zM479 181v-91q37 0 58 20t21 52q0 17 -11.5 29t-29.5 12q-19 0 -38 -22z" />
    <glyph glyph-name="afii10108" unicode="&#x45b;" horiz-adv-x="531" 
d="M-9 619h65v64h144v-64h202v-90h-202v-127h2q47 69 128 69q62 0 105 -41t43 -129v-301h-144v283q0 43 -12.5 63t-42.5 20q-25 0 -40.5 -14t-38.5 -56v-296h-144v529h-65v90z" />
    <glyph glyph-name="afii10109" unicode="&#x45c;" horiz-adv-x="483" 
d="M200 462v-184q43 0 70 64l51 120h142l-38 -88q-47 -110 -86 -141q51 -32 92 -141l35 -92h-146l-22 70q-16 52 -44 85t-54 33v-188h-144v462h144zM160 538l84 167h176l-185 -167h-75z" />
    <glyph glyph-name="afii10110" unicode="&#x45e;" horiz-adv-x="479" 
d="M42 -220l125 305l-162 377h146l88 -211l83 211h146l-280 -682h-146zM136 525l84 167h176l-185 -167h-75z" />
    <glyph glyph-name="afii10193" unicode="&#x45f;" horiz-adv-x="535" 
d="M335 0l-69 -101l-66 101h-144v462h144v-357h135v357h144v-462h-144z" />
    <glyph glyph-name="afii10050" unicode="&#x490;" horiz-adv-x="448" 
d="M66 0v683h269l103 72v-190h-217v-565h-155z" />
    <glyph glyph-name="afii10098" unicode="&#x491;" horiz-adv-x="360" 
d="M352 533v-191h-157v-342h-144v462h200z" />
    <glyph glyph-name="endash" unicode="&#x2013;" horiz-adv-x="500" 
d="M508 297v-132h-516v132h516z" />
    <glyph glyph-name="emdash" unicode="&#x2014;" horiz-adv-x="1000" 
d="M1007 297v-132h-1014v132h1014z" />
    <glyph glyph-name="quoteleft" unicode="&#x2018;" horiz-adv-x="271" 
d="M220 692v-25q-45 -39 -52 -122q56 -22 56 -79q0 -33 -23 -56t-56 -23q-42 0 -68 31.5t-26 83.5q0 71 43.5 119.5t125.5 70.5z" />
    <glyph glyph-name="quoteright" unicode="&#x2019;" horiz-adv-x="271" 
d="M51 387v25q45 39 52 122q-56 22 -56 79q0 33 23 56t56 23q42 0 68 -31.5t26 -83.5q0 -71 -43.5 -119.5t-125.5 -70.5z" />
    <glyph glyph-name="quotesinglbase" unicode="&#x201a;" horiz-adv-x="271" 
d="M55 -152v25q45 39 52 122q-56 22 -56 79q0 33 23 56t56 23q42 0 68 -31.5t26 -83.5q0 -71 -43.5 -119.5t-125.5 -70.5z" />
    <glyph glyph-name="quotedblleft" unicode="&#x201c;" horiz-adv-x="500" 
d="M450 692v-25q-45 -39 -52 -122q56 -22 56 -79q0 -33 -23 -56t-56 -23q-42 0 -68 31.5t-26 83.5q0 71 43.5 119.5t125.5 70.5zM215 692v-25q-45 -39 -52 -122q56 -22 56 -79q0 -33 -23 -56t-56 -23q-42 0 -68 31.5t-26 83.5q0 71 43.5 119.5t125.5 70.5z" />
    <glyph glyph-name="quotedblright" unicode="&#x201d;" horiz-adv-x="500" 
d="M285 387v25q45 39 52 122q-56 22 -56 79q0 33 23 56t56 23q42 0 68 -31.5t26 -83.5q0 -71 -43.5 -119.5t-125.5 -70.5zM50 387v25q45 39 52 122q-56 22 -56 79q0 33 23 56t56 23q42 0 68 -31.5t26 -83.5q0 -71 -43.5 -119.5t-125.5 -70.5z" />
    <glyph glyph-name="quotedblbase" unicode="&#x201e;" horiz-adv-x="500" 
d="M285 -152v25q45 39 52 122q-56 22 -56 79q0 33 23 56t56 23q42 0 68 -31.5t26 -83.5q0 -71 -43.5 -119.5t-125.5 -70.5zM50 -152v25q45 39 52 122q-56 22 -56 79q0 33 23 56t56 23q42 0 68 -31.5t26 -83.5q0 -71 -43.5 -119.5t-125.5 -70.5z" />
    <glyph glyph-name="dagger" unicode="&#x2020;" horiz-adv-x="500" 
d="M476 456v-74q0 -27 -6.5 -32.5t-29.5 -0.5l-167 41l55 -589q2 -21 -0.5 -27t-16.5 -6h-124q-14 0 -16.5 7.5t-0.5 25.5l56 589l-166 -41q-22 -7 -29 -0.5t-7 37.5v68q0 21 7 26t29 0l166 -41l-44 220q-4 21 3 27t35 6h60q21 0 30 -3.5t9.5 -11t-2.5 -18.5l-44 -220
l167 41q21 5 28.5 0t7.5 -24z" />
    <glyph glyph-name="daggerdbl" unicode="&#x2021;" horiz-adv-x="510" 
d="M201 632q-10 36 -1.5 48t55.5 12q46 0 54 -10t1 -50l-31 -168l158 34q24 5 32.5 -5.5t8.5 -54.5q0 -40 -7.5 -49.5t-26.5 -5.5l-165 34l31 -188l-31 -188l155 34q27 6 35.5 -2.5t8.5 -52.5t-8 -54.5t-33 -5.5l-158 34l31 -167q7 -41 -1.5 -50t-53.5 -9q-48 0 -56 12t2 47
l31 167l-159 -34q-23 -5 -32 5.5t-9 54.5q0 42 8.5 51.5t36.5 3.5l155 -34l-31 188l31 188l-166 -34q-19 -4 -26.5 5.5t-7.5 49.5q0 43 8.5 54t32.5 6l159 -34z" />
    <glyph glyph-name="bullet" unicode="&#x2022;" horiz-adv-x="350" 
d="M176 498q60 0 102 -42t42 -102t-42 -102.5t-102 -42.5t-102.5 42.5t-42.5 102.5t42.5 102t102.5 42z" />
    <glyph glyph-name="ellipsis" unicode="&#x2026;" horiz-adv-x="1000" 
d="M834 150q33 0 56 -23t23 -56t-23 -56.5t-56 -23.5t-56.5 23.5t-23.5 56.5t23.5 56t56.5 23zM501 150q33 0 56 -23t23 -56t-23 -56.5t-56 -23.5t-56.5 23.5t-23.5 56.5t23.5 56t56.5 23zM168 150q33 0 56 -23t23 -56t-23 -56.5t-56 -23.5t-56.5 23.5t-23.5 56.5t23.5 56
t56.5 23z" />
    <glyph glyph-name="perthousand" unicode="&#x2030;" horiz-adv-x="990" 
d="M695 175q0 87 35.5 134t102.5 47t103 -47t36 -134q0 -86 -36 -133t-103 -47t-102.5 47t-35.5 133zM798 175q0 -60 8 -84t27 -24q20 0 28 24t8 84q0 61 -8 85t-28 24t-27.5 -24t-7.5 -85zM385 175q0 87 35.5 134t102.5 47t103 -47t36 -134q0 -86 -36 -133t-103 -47
t-102.5 47t-35.5 133zM488 175q0 -60 8 -84t27 -24q20 0 28 24t8 84q0 61 -8 85t-28 24t-27.5 -24t-7.5 -85zM18 511q0 87 35.5 134t102.5 47t103 -47t36 -134q0 -86 -36 -133t-103 -47t-102.5 47t-35.5 133zM121 511q0 -60 8 -84t27 -24q20 0 28 24t8 84q0 61 -8 85.5
t-28 24.5q-19 0 -27 -24.5t-8 -85.5zM98 -26l383 736h96l-379 -736h-100z" />
    <glyph glyph-name="guilsinglleft" unicode="&#x2039;" horiz-adv-x="302" 
d="M143 230l132 -230h-116l-132 230l132 230h116z" />
    <glyph glyph-name="guilsinglright" unicode="&#x203a;" horiz-adv-x="302" 
d="M159 230l-132 230h116l132 -230l-132 -230h-116z" />
    <glyph glyph-name="Euro" unicode="&#x20ac;" 
d="M479 660v-125q-39 39 -119 39q-110 0 -128 -116h217l-29 -89h-198q-1 -7 -1 -26q0 -22 1 -30h178l-30 -89h-137q18 -114 128 -114q79 0 118 37v-125q-42 -30 -142 -30q-210 0 -245 232h-76l30 89h37q-1 8 -1 30q0 17 1 26h-67l30 89h45q37 234 246 234q96 0 142 -32z" />
    <glyph glyph-name="afii61352" unicode="&#x2116;" horiz-adv-x="843" 
d="M69 0v683h144l185 -386h2v386h146v-683h-135l-194 403h-2v-403h-146zM599 242q0 67 28 103.5t79 36.5t79 -36.5t28 -103.5q0 -66 -28 -102.5t-79 -36.5t-79 36.5t-28 102.5zM680 242q0 -47 5.5 -65.5t20.5 -18.5q16 0 21.5 18.5t5.5 65.5q0 48 -5.5 66t-21.5 18
q-15 0 -20.5 -18t-5.5 -66zM813 72v-51h-214v51h214z" />
    <glyph glyph-name="trademark" unicode="&#x2122;" horiz-adv-x="1000" 
d="M230 316v330h-124v70h325v-70h-120v-330h-81zM479 316v400h126l72 -275h2l72 275h127v-400h-77v318h-2l-85 -318h-74l-83 318h-2v-318h-76z" />
    <glyph glyph-name="sfthyphen" horiz-adv-x="667" 
d="M59 394h549v-121h-549v121z" />
  </font>
</defs>
</svg>
